<?xml version="1.0" encoding="UTF-8"?>
<svg 
  xmlns="http://www.w3.org/2000/svg" 
  viewBox="0 0 2048 2048" 
  width="50%" 
  height="50%" 
  preserveAspectRatio="xMidYMid meet"
>
  <path 
    d="m0 0h360l1 7v163l-1 145h243v-134l2-2h118l2 2-1 134h599v-134l2-2h118l2 3-1 133h243v-314l1-1h360v720h-360l-1-1-1-282-241-1v410l1 2 26 9 29 14 16 10 16 12 13 11 19 19 11 14 8 11 8 13 8 14 10 23 6 19 5 21 3 23v50l19 13 14 11 14 12 10 10 9 11 11 14 12 19 11 21 8 20 7 25 4 23 1 10v36l-4 26-6 24-8 24-11 24-8 15-8 12-8 11-9 11-2 3h-2l-2 4-6 6h-2v2h-2v2l-14 11-14 10-17 10-19 9-30 10-28 6-22 3-31 2-3 1-10 15-12 14-10 10-14 11-14 10-25 14-27 12-28 10-21 6h-2v231l-1 32h178l3 3-1 118h-300l-1-6v-361l-23-1-38-4-34-6-23-5-2-4v-930l1-2 19-4 19-2h32l25 3 23 5 24 8 23 10 18 10 15 10 13 10 14 12 13 13v-367l-597-1v369l20-20 17-13 14-10 21-12 22-10 27-9 29-6 18-2h31l27 3 13 3 1 13v920l-3 3-33 7-33 5-29 3-22 1v366l-1 1h-300l-1-5v-114l2-2h178v-263l-10-2-36-12-30-13-22-12-15-10-14-11-7-7-7-6-7-8-8-10-8-12-35-2-27-4-25-6-24-8-27-13-14-9-16-12-12-11-5-4-7-8-11-13-10-14-9-15-8-16-9-21-8-25-5-22-3-19-1-11v-19l2-21 5-25 6-21 8-20 13-25 10-15 9-12 12-14 14-14 11-9 13-10 17-11 1-1-1-21v-18l2-23 4-22 7-24 10-24 10-19 12-18 10-13 9-10 7-8 14-13 13-10 13-9 15-9 17-9 24-9 12-4v-411l-241-1v282l-1 2-358 1-2-1zm725 1140-1 2-1 67-3 11-7 14-7 9-8 6-12 6-15 4-6 2-1 23v95h13l22-3 23-6 19-8 17-9 17-12 10-9 8-7 10-11 13-18 8-14 9-21 6-20 3-18 1-10v-73zm480 0-1 3v48l1 24 4 27 5 17 9 21 6 11 7 11 10 13 11 12 7 7 17 13 14 9 23 11 18 6 25 5 20 2 2-1v-119l-17-3-16-8-10-9-7-9-5-10-3-10-1-15-1-56z" 
    fill="#F23849"
  />
</svg>
